<svg width="122" height="17" viewBox="0 0 122 17" fill="none" xmlns="http://www.w3.org/2000/svg">
<path d="M10.8731 15.9029L9.43033 11.2936H3.43597L2.08241 15.9029H0L4.49205 0.899414H8.19576L12.9407 15.9029H10.8731ZM3.98632 9.40653H8.86511L6.73807 2.5699H5.99436L3.98632 9.40653Z" fill="#C7F03D"/>
<path d="M17.522 15.9029C15.3206 15.9029 14.7554 15.4853 14.7554 13.7993V0.327148H16.5552V13.3508C16.5552 14.0468 16.7485 14.217 17.5071 14.217H18.0426V15.9029H17.522Z" fill="#C7F03D"/>
<path d="M22.2666 15.9029C20.0652 15.9029 19.5 15.4853 19.5 13.7993V0.327148H21.2998V13.3508C21.2998 14.0468 21.4932 14.217 22.2518 14.217H22.7872V15.9029H22.2666Z" fill="#C7F03D"/>
<path d="M29.8974 14.2013V15.9027H27.8894C26.5358 15.9027 25.6285 14.9282 25.6285 13.4588V6.32831H23.6948V4.64236H25.6285V1.45605H27.4283V4.64236H29.7041V6.32831H27.4283V13.366C27.4283 13.8764 27.9191 14.2167 28.648 14.2167H29.8974V14.2013Z" fill="#C7F03D"/>
<path d="M31.876 15.9029V0.327148H33.6758V6.66882C34.3302 5.27674 35.9664 4.3487 37.6621 4.3487C40.0866 4.3487 41.6187 6.22026 41.6187 9.01988V15.9029H39.8189V9.01988C39.8189 7.14831 38.8372 6.03466 37.1861 6.03466C34.9698 6.03466 33.6609 7.50407 33.6906 9.97887V15.9029H31.876Z" fill="#C7F03D"/>
<path d="M54.4549 9.99427C54.4549 10.1489 54.4401 10.4428 54.4252 10.7676H45.7088C45.8278 13.227 47.0475 14.4953 49.1894 14.4953C50.5727 14.4953 51.6139 13.9385 52.1792 12.8403H54.2764C53.622 14.8511 51.5842 16.1813 49.1894 16.1813C45.9617 16.1813 43.79 13.8147 43.79 10.2727C43.79 6.71516 45.9766 4.34863 49.234 4.34863C52.4023 4.3641 54.4847 6.60689 54.4549 9.99427ZM45.7683 9.06622H52.5213C52.2535 7.05544 51.1528 6.01912 49.2489 6.01912C47.2706 6.03459 46.0956 7.05544 45.7683 9.06622Z" fill="#C7F03D"/>
<path d="M56.6118 15.9028V4.64252H58.4116V6.66876C59.0661 5.27668 60.7023 4.34863 62.3979 4.34863C64.8224 4.34863 66.3545 6.2202 66.3545 9.01982V15.9028H64.5547V9.01982C64.5547 7.14825 63.573 6.03459 61.9368 6.03459C59.7057 6.03459 58.3967 7.504 58.4116 9.9788V15.9028H56.6118Z" fill="#C7F03D"/>
<path d="M74.5356 14.2013V15.9027H72.5276C71.174 15.9027 70.2667 14.9282 70.2667 13.4588V6.32831H68.333V4.64236H70.2667V1.45605H72.0665V4.64236H74.3422V6.32831H72.0665V13.366C72.0665 13.8764 72.5573 14.2167 73.2862 14.2167H74.5356V14.2013Z" fill="#C7F03D"/>
<path d="M76.7367 1.20873C76.7367 0.497224 77.2275 0.0332031 77.9564 0.0332031C78.7001 0.0332031 79.1761 0.497224 79.1761 1.20873C79.1761 1.92023 78.6852 2.38425 77.9564 2.38425C77.2275 2.38425 76.7367 1.92023 76.7367 1.20873ZM77.0639 15.9028V4.64251H78.8637V15.9028H77.0639Z" fill="#C7F03D"/>
<path d="M81.5708 10.2727C81.5708 6.71516 83.6681 4.34863 86.8214 4.34863C89.0228 4.34863 90.9416 5.66338 91.5663 7.61228H89.6178C89.2906 6.57596 88.3386 6.03459 86.8214 6.03459C84.62 6.03459 83.4598 7.47306 83.4598 10.2727C83.4598 13.0568 84.62 14.4953 86.8214 14.4953C88.3237 14.4953 89.3352 13.8611 89.7814 12.6547H91.6556C91.0606 14.7737 89.127 16.1813 86.8214 16.1813C83.6681 16.1813 81.5708 13.8147 81.5708 10.2727Z" fill="#C7F03D"/>
<path d="M93.0986 12.5619C93.0986 10.3036 94.8538 8.86514 97.4866 8.86514H100.878C100.878 7.00904 99.9706 6.03459 98.2451 6.03459C97.085 6.03459 96.2074 6.49862 95.6719 7.42667H93.7382C94.2291 5.58604 95.9991 4.34863 98.2154 4.34863C100.893 4.34863 102.633 6.14286 102.633 8.86514V15.9028H100.878V13.6446C100.432 15.1604 98.855 16.1813 96.966 16.1813C94.6456 16.1813 93.0986 14.6964 93.0986 12.5619ZM100.878 10.5511H97.5014C95.8653 10.5511 94.9877 11.2317 94.9877 12.5464C94.9877 13.8147 95.8058 14.4953 97.3527 14.4953C99.6731 14.4953 100.878 13.1342 100.878 10.5511Z" fill="#C7F03D"/>
<path d="M110.263 14.2013V15.9027H108.255C106.902 15.9027 105.994 14.9282 105.994 13.4588V6.32831H104.061V4.64236H105.994V1.45605H107.794V4.64236H110.07V6.32831H107.794V13.366C107.794 13.8764 108.285 14.2167 109.014 14.2167H110.263V14.2013Z" fill="#C7F03D"/>
<path d="M121.999 9.99427C121.999 10.1489 121.984 10.4428 121.97 10.7676H113.253C113.372 13.227 114.592 14.4953 116.734 14.4953C118.117 14.4953 119.158 13.9385 119.724 12.8403H121.821C121.166 14.8511 119.129 16.1813 116.734 16.1813C113.506 16.1813 111.334 13.8147 111.334 10.2727C111.334 6.71516 113.521 4.34863 116.778 4.34863C119.947 4.3641 122.044 6.60689 121.999 9.99427ZM113.328 9.06622H120.081C119.813 7.05544 118.712 6.01912 116.808 6.01912C114.83 6.03459 113.655 7.05544 113.328 9.06622Z" fill="#C7F03D"/>
</svg>
