<svg width="25" height="25" viewBox="0 0 25 25" fill="none" xmlns="http://www.w3.org/2000/svg">
<g clip-path="url(#clip0_1899_25866)">
<path d="M18.6948 10.5604C18.4654 9.30108 17.8001 8.16208 16.8207 7.35225C15.8468 6.54741 14.6023 6.09979 13.3167 6.09168C12.3728 6.08109 11.5043 6.29492 10.7399 6.72758C10.3328 6.95824 9.96743 7.25188 9.61392 7.53554C9.5628 7.57668 9.51105 7.61783 9.45992 7.65898C9.31528 7.77431 9.22737 7.93827 9.21178 8.12031C9.19557 8.3117 9.26103 8.50559 9.39196 8.65334C9.63075 8.92266 10.0248 8.96505 10.3297 8.75496C10.4157 8.69573 10.4893 8.62778 10.5541 8.56731L10.5772 8.54611C11.8385 7.38342 13.7532 7.14091 15.2333 7.95697C16.8013 8.82104 17.6455 10.5479 17.3344 12.2536C17.1841 13.0784 16.8175 13.7866 16.2134 14.4194C16.0507 14.5902 15.9665 14.7959 15.9765 14.9986C15.9858 15.1843 16.0737 15.3577 16.2234 15.4861C16.358 15.6014 16.5127 15.6581 16.6698 15.6581C16.8718 15.6581 17.0781 15.564 17.2509 15.3801C18.5408 14.0042 19.0271 12.3827 18.6948 10.5598V10.5604Z" fill="#C7F03D"/>
<path d="M16.9547 15.3371C16.9354 14.7031 16.5126 14.1657 15.9016 14.0011C15.6392 13.93 15.3573 13.9294 15.1516 13.9288C14.9658 13.9288 14.939 13.8752 14.9103 13.7891C14.8872 13.7187 14.8586 13.6545 14.833 13.5977C14.818 13.5641 14.8025 13.5304 14.7894 13.4955C14.765 13.4319 14.7713 13.4026 14.8199 13.3527C14.8505 13.3216 14.881 13.2904 14.9116 13.2598C15.0101 13.1607 15.1117 13.0579 15.2058 12.9425C15.6753 12.3671 15.6653 11.5654 15.1828 11.0367C14.7613 10.5754 14.3205 10.1359 13.8729 9.73126C13.3523 9.26057 12.5592 9.24623 11.9875 9.69822C11.9083 9.76056 11.8422 9.82727 11.778 9.89148C11.7131 9.95694 11.6514 10.0187 11.5909 10.0598C11.5242 10.1053 11.4606 10.1253 11.4376 10.1271C11.018 10.0529 10.9837 10.0099 10.9799 9.57603C10.9799 9.50433 10.9768 9.43763 10.9731 9.37279C10.9238 8.58229 10.3222 7.98941 9.54283 7.96323C8.96799 7.9439 8.38754 7.9439 7.81643 7.96323C7.02774 7.98879 6.4211 8.58977 6.37434 9.39149C6.36623 9.52553 6.3681 9.65707 6.36935 9.78487V9.85532C6.3706 9.92327 6.35688 9.9532 6.28019 9.98686C6.16922 10.0355 6.05387 10.0822 5.94539 10.1246C5.88491 10.1483 5.84937 10.149 5.7864 10.0872C5.75648 10.0579 5.72717 10.0286 5.69725 9.99871C5.60248 9.90395 5.50459 9.80669 5.39424 9.71567C4.82376 9.24623 4.02945 9.24499 3.50574 9.71256C3.03751 10.1303 2.5805 10.5885 2.14656 11.0741C1.69205 11.5835 1.69205 12.3858 2.14781 12.9407C2.20704 13.013 2.26939 13.0741 2.32924 13.1333C2.39346 13.1963 2.45394 13.2555 2.49384 13.3141C2.54559 13.3901 2.56678 13.4525 2.56865 13.4737C2.50942 13.8652 2.43648 13.9244 2.02187 13.9275C1.95204 13.9275 1.87036 13.9294 1.78744 13.9363C1.17207 13.9886 0.721925 14.3234 0.484382 14.9044C0.473159 14.9312 0.458196 14.9618 0.441986 14.9942C0.432634 15.0123 0.423282 15.031 0.414553 15.0497L0.384003 15.1139V17.2859L0.398343 17.3314C0.664566 18.1824 1.29053 18.5964 2.20766 18.5297C2.21639 18.5297 2.22512 18.5297 2.23385 18.5297C2.25068 18.5297 2.26814 18.5303 2.28497 18.5297C2.36665 18.5272 2.39221 18.5446 2.42151 18.6188C2.43523 18.6543 2.45082 18.6893 2.46578 18.7242C2.47326 18.7416 2.48075 18.7585 2.48823 18.7759C2.51192 18.8326 2.57427 18.9791 2.57801 19.0272C2.55868 19.0677 2.45892 19.1749 2.39845 19.2397C2.2326 19.4174 2.02686 19.6387 1.91712 19.9137C1.68706 20.4922 1.80989 21.0664 2.26315 21.5321C2.6098 21.888 2.98015 22.2658 3.36421 22.6274C4.00451 23.2309 4.87364 23.2278 5.52641 22.62C5.53951 22.6075 5.5526 22.5944 5.56569 22.5813L5.5819 22.5651C5.80469 22.3469 6.04327 22.3205 6.29765 22.4859C6.31199 22.5003 6.34628 22.5557 6.37247 22.6493C6.38182 22.6823 6.37808 22.7478 6.37434 22.8107C6.37184 22.8581 6.36873 22.9111 6.36997 22.9666C6.38494 23.6816 6.78334 24.2178 7.46105 24.4379C7.47103 24.4416 7.48038 24.4472 7.49036 24.4522C7.50407 24.4591 7.51779 24.4659 7.53213 24.4728L7.59448 24.5014H9.80157L9.87265 24.4622C9.88699 24.4541 9.90071 24.446 9.91442 24.4372C9.91941 24.4341 9.9244 24.431 9.93001 24.4279C10.5909 24.1897 10.9531 23.6935 10.9781 22.9921C10.9806 22.9155 10.9806 22.8406 10.9799 22.7683C10.9799 22.7166 10.9799 22.6655 10.9799 22.6137C10.9818 22.5133 11.0111 22.4915 11.0735 22.4678C11.1925 22.4223 11.306 22.3731 11.4114 22.3263C11.4606 22.3045 11.4899 22.2964 11.5604 22.3637C11.5922 22.3943 11.6234 22.4248 11.6552 22.456C11.7605 22.5595 11.8696 22.6661 11.9925 22.764C12.5411 23.1997 13.3267 23.1972 13.8205 22.7577C14.3249 22.3089 14.7944 21.8407 15.2164 21.365C15.666 20.8582 15.6635 20.0826 15.2102 19.5203C15.1504 19.4455 15.0836 19.3813 15.025 19.3239C14.9621 19.2628 14.9022 19.2048 14.8654 19.1493C14.8112 19.0677 14.7906 19.0003 14.7881 18.9779C14.8704 18.5521 14.8985 18.5309 15.3449 18.529H15.3642C15.416 18.529 15.4696 18.529 15.5263 18.5253C16.3293 18.476 16.9304 17.8701 16.9553 17.0846C16.9728 16.5378 16.9721 15.9674 16.9534 15.3396L16.9547 15.3371ZM15.0512 17.1114C14.9278 17.1188 14.8093 17.1357 14.6952 17.1525L14.6784 17.155C14.1665 17.2298 13.6627 17.7597 13.4545 18.443C13.255 19.0957 13.3847 19.711 13.8005 20.0888C13.8897 20.1699 13.9745 20.259 14.0462 20.3357C14.1497 20.4461 14.1416 20.4629 14.0487 20.5583C13.6989 20.9174 13.3504 21.2646 13.0137 21.5907C12.9308 21.6711 12.9096 21.6848 12.8011 21.5869C12.7974 21.5832 12.7936 21.5801 12.7905 21.5776C11.9226 20.6131 11.177 20.8476 10.488 21.1705C9.94248 21.4261 9.63386 21.855 9.57089 22.4448C9.56341 22.5133 9.56154 22.5801 9.56091 22.6355C9.55904 22.7502 9.5553 22.9803 9.53161 23.0588C9.45056 23.0825 9.21239 23.0825 9.09331 23.0825C8.98046 23.0825 8.86761 23.0825 8.75539 23.0825C8.49914 23.0832 8.23416 23.0838 7.9748 23.0807C7.80646 23.0788 7.79648 23.0688 7.79212 22.8992C7.79087 22.8456 7.79087 22.7914 7.79149 22.7378C7.79149 22.6599 7.79212 22.5788 7.78838 22.4959C7.76967 22.0695 7.59946 21.7079 7.29583 21.4498C6.93796 21.1456 6.49342 20.9548 6.01023 20.8974C5.95412 20.8906 5.89863 20.8875 5.84314 20.8875C5.43601 20.8875 5.06006 21.0701 4.69719 21.4417C4.54818 21.595 4.48023 21.6455 4.44905 21.6617C4.41476 21.6443 4.34119 21.5888 4.18719 21.4348C4.10302 21.3507 4.01823 21.2671 3.93344 21.183C3.73455 20.9853 3.5288 20.7815 3.32929 20.5789C3.20647 20.4542 3.19961 20.4467 3.33179 20.3083C3.36421 20.2746 3.39663 20.2422 3.42967 20.2092C3.50449 20.135 3.58118 20.0583 3.6535 19.9704C3.98768 19.5627 4.08744 19.0932 3.94217 18.6126C3.85738 18.3327 3.75201 18.0802 3.62918 17.8632C3.35673 17.3813 2.90471 17.1207 2.32238 17.1082C2.14594 17.1045 1.90902 17.0995 1.82797 17.0746C1.8049 16.9942 1.8049 16.761 1.8049 16.5871V16.2685C1.80428 16.0254 1.80365 15.7822 1.80552 15.5391C1.80677 15.4063 1.83109 15.3714 1.83046 15.3714C1.83046 15.3714 1.86475 15.3446 2.01065 15.3427C2.0387 15.3427 2.06676 15.3427 2.09544 15.3427C2.1528 15.344 2.21826 15.3446 2.28684 15.3396C2.40281 15.3309 2.52439 15.3178 2.65719 15.2978C3.24512 15.2112 3.6959 14.6127 3.88169 14.0578C4.09492 13.4213 3.9989 12.816 3.62544 12.4369L3.57681 12.3877C3.47768 12.2873 3.38354 12.1925 3.29376 12.0934C3.20335 11.9937 3.22954 11.9669 3.27692 11.9176C3.64041 11.5411 4.00451 11.1776 4.35865 10.8372C4.42661 10.7724 4.44032 10.7587 4.53821 10.8459C4.58435 10.8871 4.62924 10.9326 4.67787 10.9818C4.7346 11.0392 4.79321 11.0991 4.8593 11.1564C5.31443 11.5548 5.84937 11.6595 6.40738 11.46C6.56076 11.4052 6.72224 11.3384 6.88621 11.2618C7.46105 10.9943 7.77279 10.5174 7.78838 9.88213C7.79337 9.67827 7.79835 9.46817 7.81955 9.38775C7.90123 9.36843 8.11695 9.36843 8.3096 9.36843C8.4212 9.36843 8.52969 9.36843 8.63942 9.3678C8.89068 9.36718 9.15004 9.36656 9.40442 9.36967C9.50605 9.37092 9.53348 9.39087 9.53348 9.39087C9.53348 9.39087 9.5553 9.41892 9.55842 9.5249C9.55967 9.5754 9.55967 9.6259 9.55904 9.6764C9.55904 9.735 9.55842 9.7936 9.56029 9.85158C9.58086 10.5311 9.91629 11.0299 10.531 11.2936C10.667 11.3515 10.8004 11.4083 10.9369 11.4575C11.4962 11.6601 12.0324 11.5579 12.4869 11.1626C12.5536 11.1047 12.6134 11.0442 12.6708 10.9862C12.7232 10.9332 12.7731 10.8833 12.8236 10.8397C12.914 10.7612 12.9314 10.778 12.9888 10.8329C13.3392 11.1695 13.7033 11.5336 14.0705 11.9139C14.0817 11.9257 14.0998 11.9606 14.1173 11.9974C14.0655 12.071 14.0163 12.1396 13.9645 12.1907C13.7076 12.4444 13.4352 12.7661 13.366 13.2324C13.2893 13.748 13.4483 14.281 13.8037 14.6956C14.1528 15.1027 14.6441 15.3383 15.1529 15.3408C15.1853 15.3408 15.2177 15.3408 15.2501 15.3408C15.3093 15.3408 15.3655 15.3396 15.4184 15.3427C15.5413 15.3489 15.5419 15.3689 15.5431 15.4624C15.55 15.9848 15.55 16.4998 15.5425 16.9929C15.5413 17.0652 15.5407 17.0952 15.4228 17.1033C15.3717 17.107 15.315 17.1064 15.2557 17.1051C15.1909 17.1045 15.1242 17.1033 15.0531 17.1076L15.0512 17.1114Z" fill="#21D282"/>
<path d="M24.3703 10.0569C24.1832 9.47273 23.7119 8.79257 22.5323 8.86364C22.3802 8.873 22.2262 8.8705 22.0634 8.86801C21.9381 8.86614 21.8084 8.86427 21.6775 8.86801C21.5927 8.8705 21.5597 8.86115 21.5154 8.74893L21.4979 8.70467C21.3789 8.40231 21.256 8.08997 21.1158 7.78637C21.0609 7.66729 21.0746 7.62989 21.1538 7.55383C21.4025 7.31506 21.647 7.06756 21.8832 6.82754L21.9213 6.78888C22.5984 6.10125 22.6009 5.21661 21.9275 4.5352C21.4256 4.02711 20.9106 3.51341 20.352 2.96604C19.668 2.29461 18.7821 2.29461 18.0956 2.96604C17.8145 3.24097 17.5588 3.49595 17.3138 3.74595C17.2477 3.81328 17.2134 3.82637 17.1124 3.78148C16.8113 3.64807 16.4902 3.51466 16.1311 3.37376C16.0257 3.33262 16.0039 3.3002 16.0064 3.1911C16.0157 2.83138 16.0157 2.44985 16.007 2.05584C15.9871 1.18616 15.3779 0.53967 14.5574 0.51785C13.7581 0.496654 12.9108 0.496654 12.0405 0.51785C11.2755 0.536553 10.6757 1.10761 10.614 1.87692C10.5834 2.2597 10.5871 2.64498 10.5909 3.01716L10.5928 3.18611C10.5934 3.2977 10.5759 3.33449 10.4512 3.38062C10.1258 3.50094 9.80656 3.63373 9.50231 3.77525C9.3932 3.82574 9.35205 3.81826 9.26788 3.73161C9.01413 3.47039 8.7504 3.21105 8.50225 2.96729C7.81519 2.29399 6.92923 2.29337 6.24528 2.96729C5.69724 3.50655 5.16792 4.03522 4.67163 4.5377C4.00264 5.21536 4.00015 6.09314 4.66477 6.7733C4.97027 7.08626 5.28513 7.39797 5.59001 7.69971L5.84127 7.94908C5.89114 7.99895 5.96908 8.07127 6.06447 8.128C6.35127 8.29757 6.6761 8.25767 6.91302 8.02389C7.15555 7.78449 7.19857 7.45782 7.02587 7.17291C6.96165 7.06631 6.87686 6.98152 6.81513 6.91918C6.65739 6.76083 6.49966 6.6031 6.34129 6.44538C6.12495 6.22967 5.9086 6.01397 5.69413 5.79639C5.60061 5.70163 5.59499 5.65986 5.59499 5.65986C5.59499 5.65986 5.60123 5.61996 5.68914 5.53144C6.1848 5.0327 6.70665 4.51151 7.24097 3.98222C7.33324 3.8912 7.37314 3.88372 7.37252 3.8831C7.37439 3.8831 7.41429 3.89058 7.50781 3.9816C7.62004 4.09132 7.73102 4.20229 7.84199 4.31389C7.99786 4.47099 8.15997 4.63308 8.32456 4.78956C8.81337 5.25276 9.39881 5.35875 10.0167 5.09629L10.127 5.04953C10.3982 4.9342 10.6788 4.81512 10.9562 4.70664C11.6651 4.4286 12.0006 3.94918 12.0118 3.19733C12.0143 3.02464 12.0137 2.85008 12.013 2.68176C12.0124 2.49099 12.0112 2.29399 12.0155 2.1026C12.0186 1.94175 12.0236 1.92929 12.2001 1.92866C12.9258 1.92554 13.6646 1.92554 14.3953 1.92866C14.5674 1.92929 14.5836 1.9349 14.5861 2.12068C14.5886 2.31643 14.588 2.51718 14.5874 2.71106C14.5874 2.87128 14.5861 3.03212 14.5874 3.19234C14.5936 3.93235 14.9296 4.42486 15.6155 4.69792C15.9409 4.82759 16.2421 4.95165 16.5351 5.07696C17.2141 5.36748 17.8001 5.25713 18.3276 4.73844C18.4429 4.62498 18.557 4.51089 18.6711 4.3968C18.8095 4.25778 18.9486 4.11938 19.0888 3.98222C19.183 3.88996 19.2241 3.88248 19.2241 3.88185C19.226 3.88185 19.2659 3.88996 19.3569 3.98035C19.89 4.50777 20.4125 5.02833 20.9088 5.52894C20.9973 5.61809 21.006 5.65799 21.0066 5.65799C21.0066 5.65986 20.9979 5.70101 20.9063 5.79452C20.7772 5.92606 20.6463 6.05636 20.516 6.18603C20.3869 6.31383 20.2585 6.44164 20.1313 6.57131C19.6344 7.07815 19.5234 7.66667 19.8002 8.32002C19.9293 8.62363 20.059 8.93845 20.1986 9.28321C20.4642 9.94092 20.9599 10.2782 21.6725 10.2863C21.8614 10.2882 22.0503 10.2875 22.2399 10.2875C22.4095 10.2875 22.579 10.2863 22.7486 10.2875C22.9644 10.2894 22.9644 10.3013 22.965 10.4995C22.9668 11.2214 22.9668 11.9434 22.965 12.6441C22.965 12.7869 22.9388 12.8224 22.9388 12.8224C22.9388 12.8224 22.9014 12.8511 22.7468 12.8523C22.5797 12.8542 22.412 12.8536 22.2442 12.8529C22.0485 12.8529 21.8465 12.8517 21.6463 12.8548C20.9599 12.8654 20.4586 13.2133 20.1974 13.861C20.049 14.2295 19.9255 14.5281 19.8083 14.8018C19.519 15.4794 19.6306 16.0642 20.1494 16.5904C20.2653 16.7076 20.3819 16.8242 20.4985 16.9407C20.6351 17.0766 20.7716 17.2132 20.9069 17.351C20.9967 17.4426 21.0054 17.4831 21.0054 17.4831C21.0054 17.485 20.9967 17.5255 20.9063 17.6159C20.4518 18.0735 19.9642 18.5604 19.3707 19.1489C19.2672 19.2512 19.2248 19.258 19.2254 19.258C19.2248 19.258 19.1799 19.2518 19.0708 19.1433C18.8912 18.9662 18.7135 18.788 18.5352 18.6103C18.3276 18.4027 18.12 18.1957 17.9111 17.99C17.58 17.6639 17.1573 17.634 16.8599 17.9158C16.7228 18.0455 16.6454 18.2169 16.6423 18.3983C16.6392 18.6072 16.734 18.8197 16.9104 18.9968C17.2964 19.3858 17.6954 19.7879 18.1062 20.1869C18.4467 20.518 18.8357 20.6832 19.2248 20.6832C19.6151 20.6832 20.0053 20.5161 20.3445 20.1832C20.8495 19.6869 21.3645 19.1738 21.9188 18.6134C22.5953 17.9301 22.5971 17.0455 21.9238 16.3603C21.786 16.2201 21.647 16.0823 21.5079 15.9439C21.3982 15.8348 21.2885 15.7257 21.18 15.616C21.102 15.5374 21.0796 15.5031 21.0734 15.4913C21.0746 15.4776 21.0827 15.4383 21.127 15.3354C21.1538 15.2725 21.1806 15.2101 21.208 15.1478C21.3103 14.9109 21.4163 14.6659 21.5067 14.4152C21.5503 14.2949 21.5871 14.2694 21.7168 14.2731C21.9643 14.2793 22.2137 14.2781 22.455 14.2762C22.5603 14.2756 22.6663 14.275 22.7717 14.275C22.7736 14.275 22.7748 14.275 22.7773 14.275C23.3696 14.275 23.821 14.0505 24.119 13.6073C24.1957 13.4926 24.2493 13.3704 24.2961 13.2625C24.3148 13.2195 24.3335 13.1765 24.3535 13.1347L24.384 13.0711V10.1049L24.369 10.0588L24.3703 10.0569Z" fill="#21D282"/>
<path d="M11.4906 13.5295C10.7542 12.772 9.75793 12.3474 8.68493 12.3337C7.68239 12.3225 6.68296 12.7271 5.94414 13.4478C5.20408 14.1697 4.79009 15.1148 4.77887 16.1098C4.76578 17.217 5.17478 18.2425 5.9298 18.9981C6.64617 19.7145 7.60321 20.1078 8.62882 20.1078C8.64441 20.1078 8.65999 20.1078 8.67496 20.1078C9.72115 20.096 10.6825 19.7338 11.3827 19.0885C12.1446 18.3866 12.5561 17.4047 12.5735 16.2482C12.5885 15.2295 12.2038 14.2638 11.4899 13.5295H11.4906ZM11.1489 16.2576C11.1477 16.9028 10.8883 17.5144 10.4188 17.9782C9.94996 18.4414 9.33459 18.6964 8.68556 18.6964H8.67994C8.00597 18.6945 7.37813 18.4358 6.9124 17.9676C6.44791 17.5007 6.19353 16.8741 6.19603 16.2027C6.20101 14.8511 7.31142 13.7533 8.67246 13.7533H8.67807C10.0659 13.7564 11.1514 14.8561 11.1483 16.2576H11.1489Z" fill="#C7F03D"/>
</g>
<defs>
<clipPath id="clip0_1899_25866">
<rect width="24" height="24" fill="white" transform="translate(0.385254 0.5)"/>
</clipPath>
</defs>
</svg>
