<svg width="175" height="32" viewBox="0 0 175 32" fill="none" xmlns="http://www.w3.org/2000/svg">
<path d="M0.949036 1.12268H12.1068C14.0625 1.12268 15.8436 1.43699 17.45 2.04813C19.0565 2.65928 20.4359 3.60219 21.5709 4.82449C22.7059 6.04679 23.579 7.60085 24.2076 9.45175C24.8362 11.3027 25.133 13.4679 25.133 15.9125C25.133 18.357 24.8187 20.5223 24.2076 22.3732C23.579 24.2241 22.7059 25.7607 21.5709 27.0004C20.4359 28.2227 19.0739 29.1482 17.45 29.7768C15.8436 30.4054 14.0625 30.7022 12.1068 30.7022H0.949036V1.12268ZM12.1068 24.9924C14.0276 24.9924 15.5467 24.4511 16.6468 23.3859C17.7469 22.3033 18.3056 20.5921 18.3056 18.2174V13.6425C18.3056 11.2677 17.7469 9.53906 16.6468 8.47392C15.5467 7.39131 14.0276 6.86747 12.1068 6.86747H7.39228V25.0273H12.1068V24.9924Z" fill="#016ED9"/>
<path d="M89.8462 9.48681C89.497 8.43913 89.0604 7.47876 88.5715 6.62315C88.1874 5.97708 87.7683 5.36593 87.2968 4.82463C86.1968 3.56741 84.8697 2.64196 83.2982 2.01335C81.7267 1.38474 79.998 1.07043 78.1122 1.07043H41.7751C39.8892 1.07043 38.1606 1.38474 36.589 2.01335C35.0175 2.64196 33.6904 3.58487 32.5904 4.82463C32.1189 5.36593 31.6998 5.95962 31.3157 6.62315C30.8093 7.47876 30.3728 8.42167 30.041 9.48681C29.4299 11.3377 29.133 13.4855 29.133 15.9301C29.133 18.3746 29.4299 20.5224 30.041 22.3733C30.3902 23.421 30.8268 24.3814 31.3157 25.237C31.6998 25.883 32.1189 26.4942 32.5904 27.0355C33.6904 28.2927 35.0175 29.2182 36.589 29.8468C38.1606 30.4754 39.8892 30.7897 41.7751 30.7897H78.1122C79.998 30.7897 81.7267 30.4754 83.2982 29.8468C84.8697 29.2182 86.1968 28.2752 87.2968 27.0355C87.7683 26.4942 88.1874 25.9005 88.5715 25.237C89.0779 24.3814 89.5144 23.4384 89.8462 22.3733C90.4573 20.5224 90.7542 18.3746 90.7542 15.9301C90.7542 13.4855 90.4573 11.3377 89.8462 9.48681ZM41.7751 25.237C39.8892 25.237 38.405 24.6258 37.3573 23.3861C36.3096 22.1463 35.7683 20.3827 35.7683 18.0778V13.7998C35.7683 11.4949 36.2922 9.73127 37.3573 8.49152C38.405 7.25176 39.8892 6.64061 41.7751 6.64061H78.1122C79.998 6.64061 81.4822 7.25176 82.5299 8.49152C83.5776 9.73127 84.1189 11.4949 84.1189 13.7998V18.0778C84.1189 20.3827 83.595 22.1463 82.5299 23.3861C81.4647 24.6258 79.998 25.237 78.1122 25.237H41.7751Z" fill="#016ED9"/>
<path d="M130.866 30.5453H124.492V1.29749H138.357C139.701 1.29749 140.906 1.52448 142.006 1.96102C143.089 2.41501 144.032 3.04362 144.8 3.86431C145.568 4.68499 146.162 5.68029 146.581 6.81528C147 7.96773 147.209 9.22495 147.209 10.6219C147.209 12.6125 146.773 14.3411 145.882 15.8253C144.992 17.3096 143.665 18.3747 141.884 19.0557L147.629 30.5453H140.539L135.423 19.824H130.848V30.5453H130.866ZM137.571 14.4459C138.514 14.4459 139.265 14.2014 139.806 13.7125C140.347 13.2236 140.627 12.5077 140.627 11.5473V9.6964C140.627 8.75349 140.347 8.02011 139.806 7.53119C139.265 7.04227 138.514 6.79782 137.571 6.79782H130.866V14.4284H137.571V14.4459Z" fill="#016ED9"/>
<path d="M107.623 31.0517C105.702 31.0517 103.939 30.7374 102.35 30.0913C100.761 29.4452 99.3989 28.4849 98.2814 27.2276C97.1638 25.953 96.2908 24.3814 95.6796 22.4956C95.0685 20.6098 94.7542 18.4271 94.7542 15.9301C94.7542 13.4332 95.0685 11.2505 95.6796 9.36466C96.2908 7.47884 97.1638 5.90731 98.2814 4.63263C99.3989 3.35795 100.761 2.39758 102.35 1.76897C103.939 1.14036 105.702 0.808594 107.623 0.808594C109.544 0.808594 111.308 1.1229 112.897 1.76897C114.486 2.41504 115.848 3.37541 116.965 4.63263C118.083 5.90731 118.956 7.47884 119.567 9.36466C120.178 11.2505 120.492 13.4332 120.492 15.9301C120.492 18.4271 120.178 20.6098 119.567 22.4956C118.956 24.3814 118.083 25.953 116.965 27.2276C115.848 28.5023 114.486 29.4627 112.897 30.0913C111.308 30.7374 109.544 31.0517 107.623 31.0517ZM107.623 25.3942C109.544 25.3942 111.046 24.7656 112.128 23.5084C113.211 22.2512 113.735 20.4526 113.735 18.0953V13.73C113.735 11.3902 113.193 9.5742 112.128 8.31698C111.046 7.05976 109.544 6.43115 107.623 6.43115C105.702 6.43115 104.201 7.05976 103.118 8.31698C102.036 9.5742 101.512 11.3727 101.512 13.73V18.0953C101.512 20.4352 102.053 22.2512 103.118 23.5084C104.201 24.7656 105.702 25.3942 107.623 25.3942Z" fill="#016ED9"/>
<path d="M162.734 31.1912C160.167 31.1912 157.984 30.7547 156.203 29.8642C154.422 28.9911 152.886 27.8386 151.629 26.4417L155.819 22.1986C157.81 24.4162 160.254 25.5163 163.153 25.5163C164.725 25.5163 165.877 25.202 166.628 24.5559C167.379 23.9273 167.763 23.0717 167.763 22.024C167.763 21.2208 167.536 20.5572 167.099 20.0159C166.645 19.4746 165.737 19.108 164.375 18.9159L161.477 18.5492C158.369 18.165 156.099 17.2221 154.667 15.7379C153.235 14.2537 152.502 12.2806 152.502 9.81851C152.502 8.5089 152.746 7.30407 153.252 6.204C153.759 5.1214 154.475 4.17848 155.418 3.39272C156.361 2.60696 157.496 1.99581 158.858 1.55928C160.22 1.12274 161.756 0.913208 163.485 0.913208C165.685 0.913208 167.641 1.26244 169.317 1.96089C170.993 2.65934 172.425 3.68957 173.63 5.01663L169.404 9.29466C168.706 8.49144 167.868 7.82791 166.872 7.32153C165.877 6.81515 164.637 6.55323 163.118 6.55323C161.686 6.55323 160.639 6.79769 159.94 7.30407C159.242 7.81045 158.892 8.49144 158.892 9.38197C158.892 10.3773 159.172 11.0932 159.713 11.5472C160.254 12.0012 161.145 12.3155 162.367 12.5076L165.266 12.9616C168.287 13.433 170.522 14.3585 171.971 15.7554C173.42 17.1523 174.154 19.108 174.154 21.6573C174.154 23.0542 173.909 24.3464 173.403 25.5163C172.896 26.6862 172.163 27.6989 171.203 28.5371C170.242 29.3752 169.038 30.0213 167.623 30.4928C166.209 30.9642 164.585 31.1912 162.769 31.1912H162.734Z" fill="#016ED9"/>
</svg>
