<svg width="24" height="20" viewBox="0 0 24 20" fill="none" xmlns="http://www.w3.org/2000/svg">
<g clip-path="url(#clip0_1943_43206)">
<path d="M17.0843 15.5416V14.3101C17.0843 13.6569 16.815 13.0304 16.3358 12.5686C15.8565 12.1067 15.2065 11.8472 14.5287 11.8472H9.41762C8.73984 11.8472 8.08982 12.1067 7.61057 12.5686C7.13131 13.0304 6.86206 13.6569 6.86206 14.3101V15.5416" stroke="#016ED9" stroke-width="1.5" stroke-linecap="round" stroke-linejoin="round"/>
<path d="M11.9733 9.38418C13.3847 9.38418 14.5288 8.28147 14.5288 6.92121C14.5288 5.56096 13.3847 4.45825 11.9733 4.45825C10.5619 4.45825 9.41772 5.56096 9.41772 6.92121C9.41772 8.28147 10.5619 9.38418 11.9733 9.38418Z" stroke="#016ED9" stroke-width="1.5" stroke-linecap="round" stroke-linejoin="round"/>
<path d="M4.99111 12.6387H3.30261C2.77008 12.6387 2.25935 12.8426 1.88279 13.2055C1.50623 13.5684 1.29468 14.0606 1.29468 14.5739V15.5414" stroke="#016ED9" stroke-width="1.5" stroke-linecap="round" stroke-linejoin="round"/>
<path d="M5.31043 10.7036C6.41938 10.7036 7.31836 9.83721 7.31836 8.76844C7.31836 7.69966 6.41938 6.83325 5.31043 6.83325C4.20147 6.83325 3.30249 7.69966 3.30249 8.76844C3.30249 9.83721 4.20147 10.7036 5.31043 10.7036Z" stroke="#016ED9" stroke-width="1.5" stroke-linecap="round" stroke-linejoin="round"/>
<path d="M22.4692 15.5414V14.5739C22.4692 14.0606 22.2576 13.5684 21.8811 13.2055C21.5045 12.8426 20.9938 12.6387 20.4612 12.6387H18.9553" stroke="#016ED9" stroke-width="1.5" stroke-linecap="round" stroke-linejoin="round"/>
<path d="M18.4532 10.7036C19.5622 10.7036 20.4612 9.83721 20.4612 8.76844C20.4612 7.69966 19.5622 6.83325 18.4532 6.83325C17.3443 6.83325 16.4453 7.69966 16.4453 8.76844C16.4453 9.83721 17.3443 10.7036 18.4532 10.7036Z" stroke="#016ED9" stroke-width="1.5" stroke-linecap="round" stroke-linejoin="round"/>
</g>
<defs>
<clipPath id="clip0_1943_43206">
<rect width="23" height="19" fill="white" transform="translate(0.473145 0.5)"/>
</clipPath>
</defs>
</svg>
