<svg width="23" height="19" viewBox="0 0 23 19" fill="none" xmlns="http://www.w3.org/2000/svg">
<path d="M15.8626 12.0686C15.3834 11.6067 14.7334 11.3472 14.0556 11.3472H8.94447C8.2667 11.3472 7.61668 11.6067 7.13742 12.0686C6.65816 12.5304 6.38892 13.1569 6.38892 13.8101V15.0416" stroke="#016ED9" stroke-width="1.5" stroke-linecap="round" stroke-linejoin="round"/>
<path d="M11.5001 8.88418C12.9115 8.88418 14.0557 7.78147 14.0557 6.42121C14.0557 5.06096 12.9115 3.95825 11.5001 3.95825C10.0887 3.95825 8.94458 5.06096 8.94458 6.42121C8.94458 7.78147 10.0887 8.88418 11.5001 8.88418Z" stroke="#016ED9" stroke-width="1.5" stroke-linecap="round" stroke-linejoin="round"/>
<path d="M4.51796 12.1387H2.82947C2.29693 12.1387 1.78621 12.3426 1.40964 12.7055C1.03308 13.0684 0.821533 13.5606 0.821533 14.0739V15.0414" stroke="#016ED9" stroke-width="1.5" stroke-linecap="round" stroke-linejoin="round"/>
<path d="M4.83728 10.2036C5.94623 10.2036 6.84522 9.33721 6.84522 8.26844C6.84522 7.19966 5.94623 6.33325 4.83728 6.33325C3.72833 6.33325 2.82935 7.19966 2.82935 8.26844C2.82935 9.33721 3.72833 10.2036 4.83728 10.2036Z" stroke="#016ED9" stroke-width="1.5" stroke-linecap="round" stroke-linejoin="round"/>
<path d="M17.9801 10.2036C19.0891 10.2036 19.988 9.33721 19.988 8.26844C19.988 7.19966 19.0891 6.33325 17.9801 6.33325C16.8712 6.33325 15.9722 7.19966 15.9722 8.26844C15.9722 9.33721 16.8712 10.2036 17.9801 10.2036Z" stroke="#016ED9" stroke-width="1.5" stroke-linecap="round" stroke-linejoin="round"/>
<path d="M19.5 14L21.5 16L19.5 18M12 16L21 16" stroke="#016ED9" stroke-width="1.5" stroke-linecap="round" stroke-linejoin="round"/>
</svg>
