<svg width="27" height="27" viewBox="0 0 27 27" fill="none" xmlns="http://www.w3.org/2000/svg">
<path d="M18.3175 9H22.4991C23.0951 9 23.6673 9.23775 24.0906 9.65937C24.5122 10.081 24.75 10.6532 24.75 11.2507V17.9998C24.75 18.5957 24.5122 19.1679 24.0906 19.5911C23.6689 20.0127 23.0967 20.2505 22.4991 20.2505H20.2498L18.0005 23.625L14.6257 20.2505H11.2509C10.6549 20.2505 10.0827 20.0127 9.65942 19.5911C9.23777 19.1695 9 18.5973 9 17.9998" stroke="#C7F03D" stroke-width="1.7" stroke-miterlimit="10"/>
<path d="M4.50226 3.37659H15.7493C16.3453 3.37659 16.9175 3.61434 17.3406 4.03595C17.7623 4.45757 18 5.02976 18 5.62732V12.3748C18 12.9707 17.7623 13.5429 17.3406 13.9661C16.919 14.3877 16.3469 14.6255 15.7493 14.6255H12.3749L9.00045 18L5.62602 14.6255H4.50068C3.90473 14.6255 3.33255 14.3877 2.90935 13.9661C2.48775 13.5445 2.25 12.9723 2.25 12.3748V5.62573C2.25 5.02976 2.48775 4.45757 2.90935 4.03437C3.33096 3.61275 3.90314 3.375 4.50068 3.375L4.50226 3.37659Z" stroke="#21CE80" stroke-width="1.7" stroke-miterlimit="10"/>
</svg>
