<svg width="20" height="20" viewBox="0 0 20 20" fill="none" xmlns="http://www.w3.org/2000/svg">
<path fill-rule="evenodd" clip-rule="evenodd" d="M6.3542 3.66655H8.16373V16.3332H6.3542C5.87429 16.3332 5.41403 16.1426 5.07468 15.8032C4.73532 15.4639 4.54468 15.0036 4.54468 14.5237V5.47608C4.54468 4.99616 4.73532 4.5359 5.07468 4.19655C5.41403 3.8572 5.87429 3.66655 6.3542 3.66655ZM10.6084 1.86879L14.2274 3.22594C14.5724 3.35526 14.8697 3.5868 15.0796 3.88963C15.2894 4.19245 15.4019 4.55212 15.4018 4.92055V15.0792C15.4019 15.4477 15.2894 15.8073 15.0796 16.1101C14.8697 16.413 14.5724 16.6445 14.2274 16.7738L10.6084 18.131C10.3346 18.2336 10.04 18.2684 9.74989 18.2323C9.45974 18.1962 9.18266 18.0903 8.94236 17.9238C8.70207 17.7572 8.50571 17.5349 8.37011 17.2758C8.2345 17.0168 8.16369 16.7287 8.16373 16.4364V3.56341C8.16369 3.27103 8.2345 2.98299 8.37011 2.72395C8.50571 2.46492 8.70207 2.2426 8.94236 2.07602C9.18266 1.90945 9.45974 1.80359 9.74989 1.7675C10.04 1.73141 10.3346 1.76617 10.6084 1.86879Z" stroke="#074751" stroke-width="1.5" stroke-linecap="round" stroke-linejoin="round"/>
<path d="M11.6494 10.559C12.2666 10.559 12.767 10.0586 12.767 9.44138C12.767 8.82412 12.2666 8.32373 11.6494 8.32373C11.0321 8.32373 10.5317 8.82412 10.5317 9.44138C10.5317 10.0586 11.0321 10.559 11.6494 10.559Z" fill="#074751"/>
</svg>
