<svg width="14" height="13" viewBox="0 0 14 13" fill="none" xmlns="http://www.w3.org/2000/svg">
<path d="M7.47607 1.0835C4.48607 1.0835 2.06482 3.51016 2.06482 6.50016C2.06482 9.49016 4.48607 11.9168 7.47607 11.9168C10.4715 11.9168 12.8982 9.49016 12.8982 6.50016C12.8982 3.51016 10.4715 1.0835 7.47607 1.0835ZM7.48149 10.8335C5.08732 10.8335 3.14815 8.89433 3.14815 6.50016C3.14815 4.106 5.08732 2.16683 7.48149 2.16683C9.87565 2.16683 11.8148 4.106 11.8148 6.50016C11.8148 8.89433 9.87565 10.8335 7.48149 10.8335ZM7.75232 3.79183H6.93982V7.04183L9.78357 8.74808L10.1898 8.08183L7.75232 6.63558V3.79183Z" fill="#00308A"/>
</svg>
