<svg width="141" height="32" viewBox="0 0 141 32" fill="none" xmlns="http://www.w3.org/2000/svg">
<g clip-path="url(#clip0_1461_47455)">
<path d="M110.214 26.3366H109.989C109.746 27.888 108.959 29.1777 107.61 30.2057C106.261 31.2338 104.424 31.7385 102.101 31.7385C100.34 31.7385 98.6906 31.402 97.1541 30.7291C95.6177 30.0562 94.2873 29.0656 93.1443 27.7385C92.0013 26.4114 91.1019 24.7852 90.4461 22.8039C89.7903 20.8413 89.4717 18.5609 89.4717 15.9814C89.4717 13.402 89.809 11.1216 90.4836 9.12163C91.1581 7.12163 92.1137 5.45808 93.3317 4.11229C94.5496 2.76649 96.0111 1.73845 97.7163 1.02817C99.4214 0.317894 101.314 -0.0185547 103.412 -0.0185547C106.167 -0.0185547 108.565 0.579576 110.551 1.75715C112.556 2.95341 114.13 4.72911 115.273 7.10294L109.802 10.2244C109.334 9.02817 108.603 8.00014 107.591 7.15901C106.598 6.31789 105.193 5.90668 103.394 5.90668C101.314 5.90668 99.6462 6.50481 98.4095 7.70107C97.1729 8.89733 96.5545 10.8039 96.5545 13.3833V18.3179C96.5545 20.8599 97.1729 22.7478 98.4095 23.9628C99.6462 25.1777 101.295 25.7945 103.394 25.7945C104.218 25.7945 104.986 25.7011 105.736 25.5142C106.467 25.3272 107.123 25.0282 107.685 24.6357C108.247 24.2431 108.678 23.7571 108.978 23.2151C109.277 22.6543 109.446 22.0001 109.446 21.2338V19.7011H103.712V14.1123H115.835V31.2151H110.195V26.3366H110.214Z" fill="#016ED9"/>
<path d="M0 31.3832V0.261719H6.78299V25.3458H18.6626V31.3645H0V31.3832Z" fill="#016ED9"/>
<path d="M86.3988 9.19636C86.024 8.07486 85.5556 7.04682 85.0309 6.13094C84.6187 5.43935 84.169 4.78514 83.6631 4.2057C82.4826 2.85991 81.0586 1.86925 79.3722 1.19636C77.6858 0.52346 75.8308 0.187012 73.8072 0.187012H34.8143C32.7907 0.187012 30.9357 0.52346 29.2493 1.19636C27.5629 1.86925 26.1388 2.8786 24.9584 4.2057C24.4525 4.78514 24.0028 5.42066 23.5905 6.13094C23.0472 7.04682 22.5787 8.05617 22.2227 9.19636C21.5669 11.1777 21.2484 13.4767 21.2484 16.0936C21.2484 18.7104 21.5669 21.0094 22.2227 22.9907C22.5975 24.1122 23.0659 25.1403 23.5905 26.0562C24.0028 26.7478 24.4525 27.402 24.9584 27.9814C26.1388 29.3272 27.5629 30.3179 29.2493 30.9907C30.9357 31.6636 32.7907 32.0001 34.8143 32.0001H73.8072C75.8308 32.0001 77.6858 31.6636 79.3722 30.9907C81.0586 30.3179 82.4826 29.3085 83.6631 27.9814C84.169 27.402 84.6187 26.7664 85.0309 26.0562C85.5743 25.1403 86.0428 24.1309 86.3988 22.9907C87.0546 21.0094 87.3731 18.7104 87.3731 16.0936C87.3731 13.4767 87.0546 11.1777 86.3988 9.19636ZM62.6021 26.0562H34.8143C32.7907 26.0562 31.198 25.402 30.0737 24.0749C28.9495 22.7478 28.3686 20.8599 28.3686 18.3926V13.8132C28.3686 11.3459 28.9307 9.45804 30.0737 8.13094C31.198 6.80383 32.7907 6.14963 34.8143 6.14963H73.8072C75.8308 6.14963 77.4235 6.80383 78.5477 8.13094C79.672 9.45804 80.2529 11.3459 80.2529 13.8132V18.3926C80.2529 20.8599 79.6907 22.7478 78.5477 24.0749C77.4048 25.402 75.8308 26.0562 73.8072 26.0562H62.6021Z" fill="#016ED9"/>
<path d="M129.139 31.5702C126.46 31.5702 124.192 31.1216 122.337 30.2057C120.482 29.2898 118.89 28.1122 117.578 26.6543L121.944 22.2618C124.005 24.5608 126.553 25.7197 129.57 25.7197C131.2 25.7197 132.399 25.3833 133.186 24.7291C133.973 24.0749 134.367 23.1964 134.367 22.0936C134.367 21.2524 134.142 20.5608 133.674 20.0001C133.205 19.4393 132.268 19.0655 130.844 18.8599L127.828 18.4674C124.605 18.0562 122.244 17.0842 120.745 15.5515C119.246 14.0188 118.496 11.9627 118.496 9.40197C118.496 8.03748 118.759 6.78514 119.283 5.66365C119.808 4.52346 120.557 3.5515 121.532 2.74776C122.506 1.92533 123.705 1.30851 125.111 0.859909C126.516 0.411311 128.127 0.187012 129.926 0.187012C132.231 0.187012 134.236 0.542152 135.997 1.27112C137.758 2.0001 139.239 3.06552 140.494 4.44869L136.091 8.89729C135.36 8.05617 134.479 7.38327 133.449 6.85991C132.418 6.33654 131.107 6.05617 129.551 6.05617C128.071 6.05617 126.966 6.31785 126.235 6.82253C125.504 7.34589 125.148 8.05617 125.148 8.97206C125.148 10.0001 125.429 10.7478 125.991 11.215C126.553 11.6823 127.471 12.0001 128.764 12.2057L131.781 12.6917C134.929 13.1777 137.252 14.1496 138.751 15.5889C140.25 17.0281 141.019 19.0655 141.019 21.701C141.019 23.159 140.756 24.4861 140.232 25.701C139.707 26.916 138.939 27.9627 137.946 28.8412C136.934 29.7197 135.697 30.3926 134.217 30.8599C132.737 31.3272 131.05 31.5702 129.158 31.5702H129.139Z" fill="#016ED9"/>
</g>
<defs>
<clipPath id="clip0_1461_47455">
<rect width="141" height="32" fill="white"/>
</clipPath>
</defs>
</svg>
