<svg width="201" height="22" viewBox="0 0 201 22" fill="none" xmlns="http://www.w3.org/2000/svg">
<g clip-path="url(#clip0_825_25770)">
<path d="M122.04 21.7501V0.120117H168.45V4.30012H126.76V8.70012H167.03V12.8901H126.76V17.5701H168.45V21.7501H122.04Z" fill="#016ED9"/>
<path d="M42.94 21.6499V0.149902H57.57V4.3099H47.62V8.6799H56.15V12.8399H47.62V17.4899H57.57V21.6499H42.94Z" fill="#016ED9"/>
<path d="M106.24 21.4699V17.7699H108.99V3.8499H106.24V0.149902H116.38V3.8499H113.63V17.7799H116.38V21.4799H106.24V21.4699Z" fill="#016ED9"/>
<path d="M9.28999 21.8502C7.89999 21.8502 6.62999 21.6202 5.47999 21.1502C4.32999 20.6902 3.34999 19.9902 2.53999 19.0802C1.72999 18.1602 1.10999 17.0202 0.65999 15.6602C0.20999 14.3002 -0.0100098 12.7202 -0.0100098 10.9202C-0.0100098 9.12023 0.20999 7.55023 0.65999 6.18023C1.09999 4.82023 1.72999 3.68023 2.53999 2.76023C3.34999 1.84023 4.32999 1.15023 5.47999 0.690234C6.62999 0.230234 7.89999 -0.00976562 9.28999 -0.00976562C10.68 -0.00976562 11.95 0.220234 13.1 0.690234C14.25 1.15023 15.23 1.85023 16.04 2.76023C16.85 3.68023 17.47 4.82023 17.92 6.18023C18.36 7.54023 18.59 9.12023 18.59 10.9202C18.59 12.7202 18.37 14.2902 17.92 15.6602C17.48 17.0202 16.85 18.1602 16.04 19.0802C15.23 20.0002 14.25 20.6902 13.1 21.1502C11.95 21.6102 10.68 21.8502 9.28999 21.8502ZM9.28999 17.7602C10.68 17.7602 11.77 17.3102 12.54 16.4002C13.31 15.4902 13.71 14.1902 13.71 12.5002V9.35023C13.71 7.65024 13.32 6.35023 12.54 5.45023C11.76 4.55023 10.68 4.09023 9.28999 4.09023C7.89999 4.09023 6.80999 4.54023 6.03999 5.45023C5.25999 6.36023 4.86999 7.66023 4.86999 9.35023V12.5002C4.86999 14.2002 5.25999 15.5002 6.03999 16.4002C6.81999 17.3102 7.89999 17.7602 9.28999 17.7602Z" fill="#016ED9"/>
<path d="M66.8 21.7199H62.1V0.149902H72.33C73.32 0.149902 74.21 0.309902 75.02 0.639902C75.82 0.969902 76.51 1.4399 77.07 2.0499C77.64 2.6599 78.07 3.3799 78.38 4.2299C78.69 5.0699 78.84 6.0099 78.84 7.0399C78.84 8.4999 78.52 9.7799 77.87 10.8699C77.22 11.9599 76.24 12.7499 74.92 13.2499L79.15 21.7199H73.93L70.16 13.8099H66.79V21.7199H66.8ZM71.74 9.8599C72.44 9.8599 72.99 9.6799 73.39 9.3199C73.79 8.9599 73.99 8.4299 73.99 7.7299V6.3699C73.99 5.6699 73.79 5.1399 73.39 4.7799C72.99 4.4199 72.44 4.2399 71.74 4.2399H66.8V9.8599H71.74Z" fill="#016ED9"/>
<path d="M26.89 21.85L19.85 0H24.67L27.93 10.49L29.65 17.35H29.74L31.4 10.49L34.66 0H39.33L32.22 21.85H26.9H26.89Z" fill="#016ED9"/>
<path d="M90.57 21.6299L83.64 0.149902H88.38L91.58 10.4599L93.27 17.1999H93.36L94.99 10.4599L98.2 0.149902H102.79L95.8 21.6299H90.57Z" fill="#016ED9"/>
<path d="M177.31 21.6299L172.45 0.149902H177.07L179.1 10.4599L180.24 16.4299H180.33L181.68 10.4599L184.05 0.149902H189.16L191.56 10.4599L192.88 16.4299H192.97L194.11 10.4599L196.17 0.149902H200.6L195.61 21.6299H190.29L187.58 9.9999L186.53 5.2899H186.44L185.36 9.9999L182.65 21.6299H177.3H177.31Z" fill="#016ED9"/>
</g>
<defs>
<clipPath id="clip0_825_25770">
<rect width="200.61" height="21.85" fill="white"/>
</clipPath>
</defs>
</svg>
